<?xml version="1.0" standalone="no"?>
<!DOCTYPE svg PUBLIC "-//W3C//DTD SVG 20010904//EN"
 "http://www.w3.org/TR/2001/REC-SVG-20010904/DTD/svg10.dtd">
<svg version="1.0" xmlns="http://www.w3.org/2000/svg"
 width="840.000000pt" height="366.000000pt" viewBox="0 0 840.000000 366.000000"
 preserveAspectRatio="xMidYMid meet">

<g transform="translate(0.000000,366.000000) scale(0.100000,-0.100000)"
fill="#8A7362" stroke="none">
<path d="M4693 3215 c-118 -79 -202 -195 -225 -310 l-10 -54 -49 39 c-105 83
-265 155 -403 180 -98 18 -262 8 -352 -22 -269 -89 -441 -360 -394 -618 27
-149 68 -221 153 -270 96 -55 179 -35 237 57 54 85 33 183 -50 226 -40 21
-125 19 -177 -4 -45 -18 -56 -4 -61 74 -14 216 122 411 339 489 52 18 85 22
179 22 138 0 208 -16 335 -78 171 -84 264 -188 321 -356 28 -83 26 -260 -5
-360 -126 -412 -468 -603 -1136 -636 -413 -19 -1063 87 -1654 271 -156 49
-374 105 -409 105 -6 0 -20 -8 -31 -18 -10 -9 -35 -30 -55 -45 -20 -15 -36
-32 -36 -36 0 -12 162 -72 351 -130 363 -111 865 -214 1259 -258 234 -26 672
-23 890 4 213 28 433 37 529 23 44 -6 94 -21 122 -37 62 -33 147 -122 190
-198 18 -32 34 -54 36 -48 2 5 -11 50 -28 98 -41 114 -116 225 -190 283 l-58
45 67 40 c37 22 83 52 102 67 115 90 460 214 763 275 213 43 393 58 642 52
245 -5 343 -19 523 -73 115 -35 261 -102 341 -157 117 -80 238 -223 290 -341
134 -307 34 -692 -231 -891 -134 -100 -232 -134 -410 -142 -155 -7 -231 9
-367 75 -294 143 -428 488 -295 760 60 123 185 233 325 285 69 26 203 39 269
26 254 -50 426 -289 388 -538 -19 -124 -115 -250 -221 -289 -77 -29 -175 -30
-233 -1 -64 30 -102 100 -89 165 5 29 10 34 34 34 52 0 119 30 156 71 30 33
35 46 35 86 0 110 -74 183 -187 183 -74 0 -117 -25 -153 -90 -23 -41 -25 -56
-25 -160 0 -97 4 -125 24 -177 58 -154 195 -231 361 -204 216 35 361 214 361
443 0 49 -5 107 -12 130 -48 182 -203 334 -389 383 -63 17 -184 19 -256 6
-222 -42 -429 -229 -480 -434 -75 -302 79 -607 379 -751 130 -62 215 -81 362
-80 143 1 239 24 360 84 158 80 283 206 360 365 70 143 89 226 88 380 -1 187
-41 320 -139 466 -44 65 -166 192 -213 221 l-34 22 82 18 c96 20 214 74 253
115 l28 29 -108 0 c-76 0 -133 7 -195 22 -116 29 -190 28 -281 -2 l-73 -25
-77 25 c-361 114 -857 120 -1334 14 -149 -33 -340 -92 -470 -146 -45 -19 -85
-34 -87 -34 -3 0 6 22 20 49 39 78 74 214 81 314 5 72 2 113 -14 191 -19 91
-20 102 -6 140 48 128 47 121 8 209 -31 68 -36 87 -31 129 8 61 48 136 111
205 26 29 44 53 39 53 -4 0 -31 -16 -60 -35z"/>
</g>
</svg>
