<?xml version="1.0" standalone="no"?>
<!DOCTYPE svg PUBLIC "-//W3C//DTD SVG 20010904//EN"
 "http://www.w3.org/TR/2001/REC-SVG-20010904/DTD/svg10.dtd">
<svg version="1.0" xmlns="http://www.w3.org/2000/svg"
 viewBox="0 0 2604.000000 2604.000000"
 preserveAspectRatio="xMidYMid meet">
<metadata>
Created by potrace 1.13, written by Peter Selinger 2001-2015
</metadata>
<g transform="translate(0.000000,2604.000000) scale(0.100000,-0.100000)"
fill="#F5C8C8" stroke="none">
<path d="M21590 17493 c0 -56 -49 -542 -56 -551 -2 -4 -370 127 -539 191 -119
46 -141 52 -149 39 -5 -8 -6 -81 -3 -161 4 -119 10 -167 35 -261 69 -261 183
-544 358 -890 397 -787 813 -1225 1246 -1314 103 -21 186 -20 286 4 142 34
249 96 348 203 116 123 177 242 231 447 49 186 42 476 -17 705 -189 722 -820
1352 -1571 1568 -46 14 -103 28 -126 32 -38 6 -43 4 -43 -12z"/>
<path d="M16783 16116 c-334 -134 -723 -508 -990 -951 -284 -470 -434 -1011
-394 -1422 50 -514 334 -839 761 -869 450 -33 986 316 1296 842 328 558 428
1267 257 1833 -50 167 -39 158 -133 111 -154 -77 -461 -210 -486 -210 -7 0
-17 15 -22 33 -48 166 -196 654 -201 659 -3 4 -43 -8 -88 -26z"/>
<path d="M11036 14270 c-98 -32 -104 -140 -17 -326 l41 -86 -33 26 c-147 121
-224 165 -302 173 -47 5 -54 3 -87 -26 -46 -40 -91 -145 -113 -266 -25 -133
-16 -373 19 -513 33 -133 93 -284 155 -394 l49 -87 -84 -41 c-199 -99 -406
-271 -539 -448 -132 -177 -224 -397 -233 -559 -5 -105 5 -143 45 -164 39 -21
154 -15 263 14 52 14 96 24 97 23 2 -1 -27 -27 -64 -57 -78 -64 -150 -156
-159 -205 -4 -24 -1 -42 12 -62 25 -39 39 -48 130 -92 260 -126 682 -144 1022
-44 48 15 94 28 102 31 13 3 18 -15 28 -107 40 -357 195 -693 427 -925 89 -89
175 -145 222 -145 60 0 126 106 164 267 l23 94 12 -70 c28 -168 83 -283 141
-295 145 -32 483 316 618 634 66 155 125 380 125 474 l0 34 88 -29 c274 -88
594 -108 860 -53 195 40 365 120 392 183 25 62 -38 154 -180 262 -38 29 -68
54 -67 55 1 1 45 -9 97 -23 119 -31 241 -35 287 -11 63 35 67 136 12 303 -116
347 -429 694 -781 866 l-66 32 23 37 c78 124 149 302 187 471 20 88 23 132 23
289 0 207 -13 289 -64 397 -49 103 -108 120 -218 64 -52 -26 -82 -47 -195
-140 l-30 -24 26 51 c63 125 91 237 75 297 -15 55 -66 75 -194 75 -128 0 -247
-21 -396 -70 -248 -81 -441 -194 -632 -370 l-68 -63 -87 85 c-48 46 -109 103
-137 125 -165 134 -410 252 -638 309 -111 28 -328 42 -381 24z m1269 -1784
c19 -8 44 -30 55 -48 43 -70 14 -153 -63 -183 -89 -34 -187 26 -187 115 0 95
101 155 195 116z m-254 -161 c38 -20 69 -71 69 -113 0 -71 -58 -124 -136 -124
-52 0 -87 20 -114 65 -67 109 63 232 181 172z m503 -9 c129 -54 81 -246 -61
-246 -58 0 -133 72 -133 128 0 45 30 90 73 111 49 25 76 26 121 7z m-254 -161
c64 -33 90 -113 56 -173 -51 -93 -207 -79 -245 22 -40 106 83 206 189 151z"/>
<path d="M20455 14188 c-48 -17 -155 -92 -227 -158 -82 -75 -177 -188 -253
-300 -57 -85 -195 -352 -195 -377 0 -20 -7 -17 -91 37 -293 188 -690 304 -926
270 -112 -15 -156 -40 -167 -91 -11 -56 37 -190 109 -308 l28 -43 -64 49
c-124 97 -224 141 -277 122 -34 -12 -62 -59 -89 -144 -26 -86 -26 -402 0 -525
42 -194 118 -377 220 -527 l54 -79 -94 -58 c-370 -226 -682 -618 -763 -960
-24 -100 -25 -141 -2 -186 20 -40 61 -59 135 -59 50 -1 211 31 279 55 23 8 43
13 44 11 2 -2 -26 -25 -63 -52 -144 -106 -225 -212 -204 -267 16 -43 75 -79
190 -117 359 -118 862 -76 1278 108 l88 38 32 -97 c63 -194 158 -348 308 -495
144 -143 323 -253 500 -309 272 -85 388 -52 435 124 7 25 15 91 19 148 l6 103
42 -63 c85 -130 178 -201 264 -202 62 0 125 38 219 134 180 182 309 448 355
731 3 20 6 92 6 160 0 129 -14 221 -52 337 -12 35 -17 67 -13 72 5 4 54 17
109 30 473 107 936 407 1181 765 66 96 93 172 76 210 -21 47 -71 60 -222 60
-74 -1 -155 -4 -180 -8 -39 -6 -31 0 66 47 175 84 269 156 295 224 54 141
-363 354 -807 413 -109 15 -465 19 -585 6 l-76 -8 -7 101 c-22 335 -168 661
-406 902 -64 65 -112 104 -143 118 -47 21 -48 21 -80 3 -40 -24 -79 -100 -109
-212 -25 -95 -29 -92 -48 34 -14 93 -43 176 -73 211 -26 29 -78 38 -122 22z
m-207 -2038 c98 -60 64 -195 -58 -231 -82 -25 -170 32 -170 109 0 109 133 180
228 122z m312 -65 c41 -21 60 -53 60 -100 0 -137 -205 -200 -274 -84 -65 110
94 246 214 184z m-550 -161 c104 -42 104 -171 0 -224 -84 -43 -182 -13 -207
62 -22 66 9 125 82 159 49 23 73 23 125 3z m348 -93 c34 -24 57 -80 48 -116
-8 -31 -52 -82 -87 -100 -36 -19 -112 -19 -149 0 -41 21 -60 53 -60 102 0 35
6 50 36 83 20 22 50 44 68 50 46 14 110 6 144 -19z"/>
<path d="M4641 14049 c-80 -32 -181 -158 -266 -331 l-52 -108 -7 109 c-8 136
-27 201 -67 235 -60 51 -149 23 -312 -97 -284 -210 -543 -526 -694 -845 -65
-137 -140 -357 -156 -457 l-11 -74 -66 -7 c-221 -22 -466 -96 -691 -210 -234
-117 -411 -245 -594 -428 -144 -144 -196 -218 -203 -288 -4 -44 -1 -52 24 -79
42 -43 134 -74 288 -94 l50 -7 -100 -32 c-206 -67 -350 -161 -375 -245 -23
-76 18 -186 115 -307 183 -228 496 -374 859 -400 85 -6 97 -9 92 -23 -20 -49
-57 -222 -71 -336 -30 -234 -6 -467 69 -682 81 -232 244 -447 355 -469 79 -16
151 74 232 289 l37 98 6 -128 c8 -199 44 -283 121 -283 109 0 379 216 577 462
115 144 187 257 282 445 l81 162 34 -25 c226 -173 554 -293 890 -325 172 -16
351 7 399 53 51 48 14 175 -102 351 -16 25 -6 21 66 -29 150 -102 242 -131
288 -90 51 47 81 195 81 407 0 298 -66 571 -199 825 l-59 111 42 13 c66 19
273 108 376 161 130 67 293 171 392 250 243 195 365 348 344 433 -14 56 -150
108 -319 122 l-81 7 84 23 c189 51 302 100 335 146 89 128 -212 414 -555 529
-188 63 -263 74 -505 73 -165 0 -242 -4 -310 -17 -49 -9 -93 -17 -96 -17 -3 0
-3 61 -1 135 12 353 -88 653 -284 849 -123 123 -257 180 -343 145z m-188
-2369 c39 -44 38 -111 -3 -168 -107 -148 -324 -79 -252 79 52 117 187 164 255
89z m-341 -80 c28 -28 30 -35 26 -81 -10 -96 -96 -178 -186 -179 -37 0 -50 6
-78 34 -39 39 -44 74 -19 134 33 78 95 122 173 122 46 0 58 -4 84 -30z m215
-242 c83 -84 -17 -258 -149 -258 -137 0 -144 197 -10 270 51 28 124 22 159
-12z m-350 -78 c47 -28 62 -84 39 -144 -18 -47 -70 -100 -113 -117 -37 -14
-101 -11 -127 6 -83 55 -42 206 68 256 53 24 93 24 133 -1z"/>
<path d="M7843 11748 c-108 -72 -284 -251 -362 -367 -268 -404 -349 -923 -230
-1479 125 -584 555 -1233 914 -1381 89 -36 190 -36 267 2 31 15 79 48 105 72
232 207 500 893 602 1535 70 436 51 848 -50 1152 -32 95 -104 248 -116 248
-21 0 -374 -195 -547 -302 -44 -27 -83 -50 -87 -51 -4 -1 -61 84 -127 189
-127 202 -280 434 -286 434 -3 0 -40 -23 -83 -52z"/>
<path d="M15552 11410 c-306 -81 -599 -254 -873 -518 -401 -386 -668 -872
-765 -1392 -28 -147 -26 -483 3 -606 75 -319 254 -543 512 -643 129 -50 225
-64 385 -58 341 12 689 153 1025 415 499 389 846 965 927 1539 20 142 14 407
-11 520 -18 81 -70 242 -82 254 -4 4 -125 -25 -268 -65 -426 -120 -524 -143
-534 -128 -4 8 -57 168 -117 358 -59 189 -113 344 -119 343 -5 0 -43 -9 -83
-19z"/>
</g>
</svg>
