<?xml version="1.0" standalone="no"?>
<!DOCTYPE svg PUBLIC "-//W3C//DTD SVG 20010904//EN"
 "http://www.w3.org/TR/2001/REC-SVG-20010904/DTD/svg10.dtd">
<svg version="1.0" xmlns="http://www.w3.org/2000/svg"
 width="1280.000000pt" height="1280.000000pt" viewBox="0 0 1280.000000 1280.000000"
 preserveAspectRatio="xMidYMid meet">
<metadata>
Created by potrace 1.15, written by Peter Selinger 2001-2017
</metadata>
<g transform="translate(0.000000,1280.000000) scale(0.100000,-0.100000)"
fill="#FFFFFF" stroke="none">
<path d="M4125 12242 c-179 -85 -340 -346 -489 -792 -87 -261 -117 -374 -151
-572 -13 -78 -35 -197 -49 -263 -13 -66 -27 -147 -30 -180 -4 -33 -13 -98 -21
-145 -8 -47 -19 -130 -25 -185 -5 -55 -14 -140 -20 -190 -39 -367 -65 -935
-57 -1215 19 -605 111 -1167 282 -1731 46 -151 54 -209 33 -253 -6 -14 -68
-77 -137 -139 -271 -243 -482 -511 -660 -835 -176 -320 -292 -666 -367 -1094
-35 -204 -45 -565 -20 -757 19 -145 57 -346 92 -486 82 -332 244 -681 475
-1020 116 -170 338 -426 469 -540 358 -310 700 -515 1077 -645 159 -55 482
-135 678 -168 141 -23 188 -26 400 -26 202 -1 264 3 390 22 553 86 927 222
1358 494 428 270 809 679 1058 1136 218 400 350 829 390 1266 17 178 6 567
-20 736 -28 185 -80 391 -151 599 -63 184 -71 239 -44 281 10 14 83 93 163
175 438 448 798 931 1074 1440 285 528 610 1287 751 1760 25 83 54 177 66 210
30 85 95 350 119 480 11 61 29 148 41 195 28 108 39 416 20 528 -16 97 -74
215 -132 268 -66 61 -119 78 -226 72 -563 -33 -1665 -1006 -2338 -2065 -244
-383 -525 -960 -698 -1433 -46 -125 -64 -161 -99 -202 -21 -26 -25 -27 -62
-17 -22 6 -116 48 -210 94 -464 228 -880 333 -1385 350 -102 3 -204 11 -226
16 -39 10 -42 14 -47 52 -5 38 8 221 18 257 2 8 9 62 14 120 6 58 17 175 26
260 43 442 41 965 -6 1379 -64 576 -224 1224 -428 1736 -162 406 -387 770
-565 917 -147 121 -241 152 -331 110z"/>
</g>
</svg>
