<?xml version="1.0" encoding="utf-8"?><!-- Uploaded to: SVG Repo, www.svgrepo.com, Generator: SVG Repo Mixer Tools -->
<!--suppress CheckTagEmptyBody -->
<svg width="800px" height="800px" viewBox="0 0 64 64" xmlns="http://www.w3.org/2000/svg" role="img"
     class="iconify iconify--emojione" preserveAspectRatio="xMidYMid meet"><path d="M22 0c0 16.9-9.1 32-22 32c12.9 0 22 15.1 22 32c0-16.9 9.1-32 22-32c-12.9 0-22-15.1-22-32" fill="#ffe54d"></path><path d="M53 0c0 8.4-4.6 16-11 16c6.4 0 11 7.6 11 16c0-8.4 4.6-16 11-16c-6.4 0-11-7.6-11-16" fill="#6adbc6"></path><path d="M48 32c0 8.4-4.6 16-11 16c6.4 0 11 7.6 11 16c0-8.4 4.6-16 11-16c-6.4 0-11-7.6-11-16" fill="#ff73c0"></path></svg>